<svg xmlns="http://www.w3.org/2000/svg" width="115.121" height="115.121">
    <path d="M75.347 83.748l1.158 2.488 1.161-2.488zm-36.589 0l1.159 2.488 1.163-2.488zm-18.946 5.941l1.159 2.489 1.16-2.489zm36.589 0l1.16 2.489 1.161-2.489zm36.587 0l1.159 2.489 1.162-2.489z"/>
    <path d="M115.032 99.643l-1.294-5.574a3.493 3.493 0 00-.903-1.652 9.045 9.045 0 00-2.313-1.698c-2.624-1.345-5.273-2.447-7.653-3.379l-.052-.164c-.083-.275-.25-.836-.639-1.433a5.535 5.535 0 01.001-.319c.249-.339.387-.646.452-.806.293-.653.475-1.285.621-1.795.101-.35.239-.83.334-.967l-.002-.002a3.851 3.851 0 00.623-1.701l.03-.301c.073-.697.146-1.389.212-2.17a3.812 3.812 0 00-.516-2.141l-.002-2.365c0-2.469-1.132-4.004-2.081-4.859a52.173 52.173 0 00-.704-.623 3.59 3.59 0 00-.646-2.152c-.646-1-1.838-1.604-3.026-1.604a5.745 5.745 0 00-1.163.052l-.391.062a32.84 32.84 0 00-2.435.445c-.815.192-1.691.436-2.578.772V23.941L74.696 42.95v15.904c-1.558.441-3.233 1.111-4.761 2.371-.678.559-2.739 2.258-2.964 5.262a26.694 26.694 0 00-.052 1.791l-.003 1.023a3.878 3.878 0 00-.344.688 6.294 6.294 0 00-.908-1.271V46.883l-6.989-2.043-9.223 13.703v6.817a6.18 6.18 0 00-1.831-2.985 81.219 81.219 0 00-.69-.611 3.557 3.557 0 00-.327-1.58c.02-.027.045-.049.063-.076l11.45-17.01 10.592 3.096a1.745 1.745 0 001.81-.539l26.748-31.359a1.74 1.74 0 00-.192-2.449 1.74 1.74 0 00-2.45.195l-26.02 30.502-10.732-3.136a1.73 1.73 0 00-1.929.697L44.942 56.452l-9.857-9.506a1.74 1.74 0 00-2.309-.092L19.458 57.796a1.736 1.736 0 001.106 3.079c.388 0 .777-.129 1.102-.396l12.121-9.961 7.874 7.595-.057.008c-.628.1-1.28.209-1.954.352l-6.129-5.91-7.922 6.51v5.107a3.67 3.67 0 00-1.302-.242 5.62 5.62 0 00-1.164.052l-.388.062c-.78.121-1.587.248-2.436.445-1.852.438-4.002 1.098-5.909 2.672-.678.559-2.738 2.258-2.966 5.271a27.512 27.512 0 00-.05 1.771l-.004 1.039c-.498.783-.748 1.795-.552 3.012-.013-.07-.022-.141-.024-.15.007.219.019.586.119 1.041.144.641.321 1.398.542 2.15.091.314.211.623.338.93.023.057.049.113.07.172a8.472 8.472 0 001.11 3.021c-.359.457-.672 1.043-.896 1.797l-.052.168c-.13.053-.26.105-.39.16-.371.152-.743.305-1.112.459l-.685.287c-.764.316-1.526.633-2.288.994a55.59 55.59 0 00-2.399 1.244l-.529.284c-.913.486-1.625.982-2.237 1.56a3.492 3.492 0 00-1.01 1.75L.092 99.637a3.499 3.499 0 003.407 4.299c2.442 0 4.313.934 6.684 2.115 2.501 1.248 5.336 2.662 9.155 2.99.101.008.201.012.301.012h.019a3.47 3.47 0 001.453-.314 3.54 3.54 0 001.827.185c2.569-.431 5.575-1.609 8.482-2.75 2.54-.996 5.7-2.236 7.023-2.236.28 0 .556-.037.822-.103.268.064.543.103.823.103 2.442 0 4.313.935 6.684 2.115 2.501 1.248 5.336 2.662 9.155 2.989.101.009.201.013.301.013h.019c.519 0 1.011-.111 1.453-.313a3.54 3.54 0 001.827.184c2.569-.43 5.575-1.609 8.482-2.75 2.54-.996 5.7-2.236 7.023-2.236.279 0 .555-.037.82-.102.268.063.541.102.821.102 2.442 0 4.312.934 6.684 2.115 2.501 1.248 5.337 2.662 9.157 2.99.101.008.2.012.3.012h.02a3.47 3.47 0 001.453-.314 3.53 3.53 0 001.825.185c2.569-.431 5.575-1.609 8.482-2.75 2.54-.996 5.7-2.236 7.023-2.236 1.066 0 2.075-.485 2.739-1.321s.916-1.937.676-2.978zm-92.669 6.025l2.352-3.25-3.744-10.24-3.745 10.24 2.414 3.334c-6.553-.563-9.841-5.117-16.139-5.117l1.293-5.508c.426-.4.938-.728 1.484-1.019.929-.498 1.851-1.01 2.799-1.465.921-.437 1.873-.813 2.815-1.209.886-.373 1.782-.728 2.66-1.106a.776.776 0 00.367-.381c.197-.492.363-1 .518-1.509.118-.387.194-.769.689-.866.124-.029.274-.246.295-.39.102-.74.177-1.483.229-2.228a.727.727 0 00-.176-.483c-.654-.731-1.016-1.572-1.163-2.539-.077-.483-.347-.935-.485-1.41a30.499 30.499 0 01-.487-1.938c-.052-.234-.021-.486-.063-.728-.057-.353-.045-.618.374-.756.12-.037.213-.315.219-.483.022-1.037.006-.783.013-1.824.006-.637 0-1.277.044-1.914.092-1.215.807-2.074 1.7-2.812 1.308-1.079 2.874-1.586 4.487-1.967.844-.196 1.707-.319 2.568-.457.228-.035.465-.006.699-.006.039.062.078.119.119.178-.182.132-.379.242-.536.396-.353.351-.317.595.056.91a93.15 93.15 0 012.313 1.996c.664.599.922 1.377.922 2.258.003 1.513.003 1.732.003 3.244-.003.31-.022.617.36.752.083.029.166.199.16.295-.067.775-.149 1.545-.23 2.32-.004.029-.008.064-.025.086-.697 1.017-.782 2.264-1.282 3.353-.019.041-.031.088-.059.123-.925 1.086-.636 2.393-.657 3.637 0 .129.092.324.194.369.375.168.467.489.569.834.167.535.327 1.078.559 1.59.088.185.341.349.552.427 2.835 1.09 5.64 2.239 8.348 3.629.542.28 1.009.621 1.405 1.026l1.293 5.574c-3.694.001-11.309 4.237-16.081 5.034zm17.554-19.432l-2.324 6.355a7.931 7.931 0 00-1.084-.68c-2.838-1.455-5.692-2.615-8.164-3.57-.079-.225-.147-.453-.218-.68l-.055-.174a4.817 4.817 0 00-.256-.681c.07-.033.137-.069.208-.104.92-.438 1.873-.813 2.814-1.211.886-.373 1.782-.727 2.661-1.106a.775.775 0 00.367-.382c.196-.491.362-1 .517-1.508.119-.387.194-.766.689-.867.124-.028.274-.245.295-.389.102-.74.178-1.483.229-2.227a.73.73 0 00-.176-.484c-.653-.731-1.016-1.572-1.163-2.539-.077-.483-.347-.934-.485-1.41a29.506 29.506 0 01-.486-1.938c-.053-.233-.021-.485-.063-.728-.058-.35-.044-.619.375-.756.118-.037.211-.315.217-.481.022-1.039.008-.785.013-1.826.006-.637 0-1.276.046-1.912.09-1.217.805-2.075 1.698-2.813 1.308-1.08 2.874-1.586 4.487-1.967.844-.197 1.708-.317 2.568-.457.228-.035.465-.006.7-.006.038.062.077.119.118.178-.182.131-.379.242-.536.396-.353.35-.317.594.056.91.778.658 1.556 1.314 2.313 1.996.664.598.922 1.377.922 2.258.003 1.512.003 1.732.003 3.244-.003.309-.022.617.36.752.083.029.167.201.16.297-.066.773-.149 1.543-.23 2.318-.004.029-.008.063-.025.086-.697 1.016-.782 2.264-1.281 3.352-.02.041-.031.088-.06.123-.925 1.086-.635 2.393-.657 3.637 0 .129.092.324.194.371.375.166.467.488.569.832.168.535.327 1.078.559 1.592.088.185.341.347.552.427 1.427.547 2.845 1.108 4.247 1.713-.418.502-.602 1.063-.692 1.364-.084.277-.171.556-.269.832-.337.142-.676.279-1.015.42l-1.777.736c-.746.312-1.491.619-2.229.969-.785.377-1.553.789-2.32 1.203l-.313.17-2.059-5.635zm19.037 19.432l2.352-3.25-3.744-10.24-3.745 10.24 2.414 3.334c-6.553-.563-9.841-5.117-16.139-5.117l1.293-5.508c.427-.4.938-.728 1.484-1.019.93-.498 1.852-1.01 2.799-1.465.921-.437 1.873-.813 2.815-1.209.886-.373 1.782-.728 2.662-1.106a.781.781 0 00.365-.381c.197-.492.363-1 .518-1.509.118-.387.194-.769.689-.866.124-.029.273-.246.295-.39.102-.74.177-1.483.229-2.228a.722.722 0 00-.176-.483c-.653-.731-1.016-1.572-1.163-2.539-.077-.483-.347-.935-.484-1.41a30.507 30.507 0 01-.488-1.938c-.052-.234-.021-.486-.063-.728-.057-.353-.044-.618.376-.756.118-.037.211-.315.217-.483.022-1.037.008-.783.013-1.824.006-.637 0-1.277.046-1.914.09-1.215.805-2.074 1.698-2.812 1.308-1.079 2.873-1.586 4.487-1.967.843-.196 1.708-.319 2.568-.457.229-.035.465-.006.7-.006.038.062.078.119.118.178-.183.132-.379.242-.535.396-.353.351-.318.595.055.91a91.362 91.362 0 012.313 1.996c.664.599.922 1.377.922 2.258.003 1.513.003 1.732.003 3.244-.003.31-.021.617.36.752.083.029.168.199.159.295-.066.775-.148 1.545-.229 2.32-.004.029-.008.064-.025.086-.696 1.017-.781 2.264-1.28 3.353-.021.041-.032.088-.061.123-.925 1.086-.635 2.393-.655 3.637 0 .129.091.324.192.369.376.168.467.489.569.834.167.535.328 1.078.559 1.59.088.185.341.349.552.427 2.836 1.09 5.641 2.239 8.351 3.629a5.45 5.45 0 011.403 1.026l1.293 5.574c-3.695.001-11.311 4.237-16.082 5.034zm17.551-19.432l-2.324 6.354a7.703 7.703 0 00-1.08-.679c-2.84-1.455-5.692-2.614-8.165-3.569-.08-.229-.15-.466-.224-.697l-.051-.16a4.788 4.788 0 00-.254-.676c.068-.033.136-.069.204-.104.921-.438 1.873-.813 2.814-1.211.887-.373 1.783-.727 2.661-1.106a.781.781 0 00.367-.381c.195-.492.362-1 .518-1.509.118-.387.194-.766.688-.866.124-.029.273-.246.296-.39.101-.74.177-1.483.229-2.227a.725.725 0 00-.176-.484c-.653-.731-1.015-1.572-1.163-2.539-.076-.483-.347-.934-.485-1.41a28.878 28.878 0 01-.485-1.938c-.052-.233-.021-.485-.063-.728-.058-.35-.044-.618.375-.756.118-.037.212-.315.217-.481.022-1.039.009-.785.014-1.826.006-.637 0-1.276.046-1.912.091-1.217.805-2.075 1.698-2.813 1.309-1.079 2.874-1.586 4.486-1.967.845-.197 1.708-.317 2.569-.457.228-.035.464-.006.699-.006.039.062.077.119.118.178-.183.132-.38.242-.536.396-.353.35-.317.594.057.91.777.658 1.555 1.314 2.313 1.996.664.598.923 1.377.923 2.258.002 1.512.002 1.732.002 3.244-.002.309-.022.617.359.752.083.029.167.201.16.297-.065.773-.148 1.543-.229 2.318-.004.029-.008.063-.025.086-.696 1.016-.782 2.264-1.28 3.352-.021.041-.031.088-.061.123-.925 1.086-.634 2.393-.657 3.637 0 .129.092.324.194.371.375.166.467.488.568.832.169.535.327 1.078.56 1.592.088.185.341.347.553.427 1.426.547 2.844 1.108 4.247 1.713-.42.502-.604 1.063-.691 1.364-.085.277-.173.556-.271.83-.34.146-.684.285-1.025.427l-1.767.731c-.746.312-1.491.619-2.227.969-.794.382-1.57.798-2.348 1.218l-.289.155-2.059-5.638zm19.036 19.432l2.352-3.25-3.744-10.24-3.745 10.24 2.415 3.334c-6.554-.563-9.842-5.117-16.14-5.117l1.293-5.508c.427-.4.938-.728 1.485-1.019.928-.498 1.85-1.01 2.799-1.465.92-.437 1.873-.813 2.813-1.209.887-.373 1.783-.728 2.66-1.106a.772.772 0 00.367-.381c.197-.492.363-1 .519-1.509.118-.387.193-.769.688-.866.124-.029.274-.246.295-.39.103-.74.178-1.483.229-2.228a.723.723 0 00-.177-.483c-.652-.731-1.015-1.572-1.163-2.539-.076-.483-.347-.935-.484-1.41a30.499 30.499 0 01-.487-1.938c-.052-.234-.021-.486-.062-.728-.058-.353-.043-.618.376-.756.117-.037.211-.315.217-.483.021-1.037.008-.783.013-1.824.006-.637 0-1.277.046-1.914.09-1.215.806-2.074 1.698-2.812 1.308-1.079 2.874-1.586 4.487-1.967.844-.196 1.708-.319 2.568-.457.228-.035.465-.006.699-.006.039.062.077.119.118.178-.182.132-.379.242-.536.396-.353.351-.316.595.057.91a95.007 95.007 0 012.313 1.996c.664.599.922 1.377.922 2.258.003 1.513.003 1.732.003 3.244-.003.31-.021.617.36.752.083.029.166.199.16.295-.066.775-.149 1.545-.23 2.32-.004.029-.008.064-.024.086-.697 1.017-.782 2.264-1.281 3.353-.021.041-.031.088-.061.123-.925 1.086-.635 2.393-.656 3.637 0 .129.092.324.193.369.375.168.467.489.569.834.168.535.327 1.078.559 1.59.088.185.342.349.554.427 2.834 1.09 5.639 2.239 8.349 3.629a5.45 5.45 0 011.403 1.026l1.293 5.574c-3.695.001-11.311 4.237-16.082 5.034z"/>
    <path d="M90.909 7.107c0-.574-.467-1.041-1.042-1.041H75.738c-.574 0-1.042.467-1.042 1.041v25.135l16.213-19.006V7.107zM58.186 37.458l7.479 2.188v-16.21c0-.576-.467-1.043-1.042-1.043H50.496c-.575 0-1.042.467-1.042 1.043V46.1l4.877-7.246a3.474 3.474 0 013.855-1.396zm-22.068 7.956l5.694 5.492V35.595c0-.576-.467-1.043-1.042-1.043H26.642c-.576 0-1.042.467-1.042 1.043v14.487l5.9-4.85a3.473 3.473 0 014.618.182z"/>
</svg>
