<svg xmlns="http://www.w3.org/2000/svg" viewBox="0 0 64 64">
    <path d="M48.792 15.996c-.477 0-.956.023-1.434.067A18.529 18.529 0 0030.142 4.371a18.458 18.458 0 00-18.44 16.825C5.168 21.672 0 27.138 0 33.788c0 6.546 5.008 11.945 11.394 12.566.106.038.221.06.34.06h3.841a1 1 0 100-2h-2.95C6.767 44.413 2 39.645 2 33.787s4.767-10.625 10.64-10.625a1 1 0 00.999-.959A16.466 16.466 0 0130.142 6.371 16.525 16.525 0 0145.75 17.477c.158.455.625.73 1.09.662a13.443 13.443 0 011.952-.143C56.075 17.996 62 23.921 62 31.204s-5.925 13.21-13.208 13.21l-.028.081a.996.996 0 00-.397-.082h-4.375a1 1 0 100 2h4.375c.14 0 .275-.03.397-.082l.028.082C57.178 46.413 64 39.591 64 31.204c0-8.386-6.822-15.208-15.208-15.208z"/>
    <path d="M43.245 37.424a1 1 0 00.707-1.707l-4.928-4.927v-.008h-.007l-.286-.285a1 1 0 00-1.414 0l-.285.285h-.008v.008l-4.926 4.927a1 1 0 101.414 1.414l3.512-3.513v18.26h2v-18.26l3.514 3.513a.997.997 0 00.707.293zm-15.72 15.278l-3.513 3.513v-18.26h-2v18.26l-3.513-3.513a1 1 0 10-1.414 1.414l4.927 4.927v.009h.009l.284.284a.997.997 0 001.414 0l.284-.284h.009v-.009l4.927-4.927a1 1 0 10-1.414-1.414z"/>
</svg>
