<svg xmlns="http://www.w3.org/2000/svg" viewBox="0 0 448.226 448.226">
    <path d="M425.792 42.05h-58.72c-12.37 0-22.433 10.063-22.433 22.433v197.775c0 12.101 9.845 21.945 21.945 21.945h59.696c12.101 0 21.945-9.844 21.945-21.945V64.483c.001-12.37-10.062-22.433-22.433-22.433zm7.434 220.208a6.953 6.953 0 01-6.945 6.945h-59.696a6.953 6.953 0 01-6.945-6.945V64.483c0-4.099 3.334-7.433 7.433-7.433h58.72c4.099 0 7.434 3.334 7.434 7.433v197.775zm-124.588-29.234V69.55a5 5 0 00-5-5H27.5a5 5 0 00-5 5v163.474a5 5 0 005 5h276.138a5 5 0 005-5zm-10-5H32.5V74.55h266.138v153.474z"/>
    <path d="M113.336 269.203H92.847a7.5 7.5 0 000 15h145.444a7.5 7.5 0 000-15h-20.489l-3.584-8.679h94.974c12.101 0 21.945-9.845 21.945-21.945V63.995c0-12.101-9.845-21.945-21.945-21.945H21.945C9.845 42.05 0 51.895 0 63.995v174.583c0 12.101 9.845 21.945 21.945 21.945h94.975l-3.584 8.68zm88.238 0h-72.009l3.584-8.679h64.84l3.585 8.679zM15 238.579V63.995a6.953 6.953 0 016.945-6.945h287.247a6.953 6.953 0 016.945 6.945v174.583a6.953 6.953 0 01-6.945 6.945H21.945c-3.829.001-6.945-3.115-6.945-6.944zM423.804 62.41h-54.742a5 5 0 00-5 5v118.467a5 5 0 005 5h54.742a5 5 0 005-5V67.41a5 5 0 00-5-5zm-5 10v38.467h-44.742V72.41h44.742zm-44.742 61.799v-13.333h44.742v13.333h-44.742zm44.742 10v13.333h-44.742v-13.333h44.742zm-44.742 36.667v-13.333h44.742v13.333h-44.742zm6.374 18.666a5.003 5.003 0 00-5 5c0 1.32.53 2.61 1.46 3.54s2.22 1.46 3.54 1.46c1.31 0 2.6-.53 3.53-1.46.93-.94 1.47-2.22 1.47-3.54a5.022 5.022 0 00-5-5zm16 0c-1.32 0-2.61.54-3.54 1.47s-1.46 2.21-1.46 3.53.53 2.6 1.46 3.54c.93.93 2.22 1.46 3.54 1.46 1.31 0 2.6-.53 3.53-1.46.93-.93 1.47-2.22 1.47-3.54s-.54-2.61-1.47-3.53a5.04 5.04 0 00-3.53-1.47zm16 0c-1.32 0-2.61.54-3.54 1.47-.93.92-1.46 2.21-1.46 3.53s.53 2.61 1.46 3.54 2.22 1.46 3.54 1.46c1.31 0 2.6-.53 3.53-1.46.93-.93 1.47-2.22 1.47-3.54s-.54-2.61-1.47-3.53a5.04 5.04 0 00-3.53-1.47zm-129.2 94.967H47.902a7.5 7.5 0 00-7.5 7.5v96.667a7.5 7.5 0 007.5 7.5h235.333a7.5 7.5 0 007.5-7.5v-96.667a7.499 7.499 0 00-7.499-7.5zm-7.5 96.667H55.402v-81.667h220.333v81.667zm54.084-84c-17.001 0-30.833 13.832-30.833 30.833v21.333c0 17.001 13.832 30.833 30.833 30.833s30.833-13.832 30.833-30.833v-21.333c0-17.001-13.831-30.833-30.833-30.833zm15.011 25.833H334.82v-10.011a15.89 15.89 0 0110.011 10.011zm-20.011-10.011v10.011h-10.012a15.896 15.896 0 0110.012-10.011zm5 52.178c-8.73 0-15.833-7.103-15.833-15.833V343.01h31.667v16.333c-.001 8.73-7.103 15.833-15.834 15.833z"/>
    <path d="M67.902 383.009h195.333a5 5 0 005-5v-55.333a5 5 0 00-5-5H67.902a5 5 0 00-5 5v55.333a5 5 0 005 5zm5-18.444h14.417v8.444H72.902v-8.444zm45.235-18.445v8.445H103.72v-8.445h14.417zm122.083 0v8.445h-14.417v-8.445h14.417zm-24.416 0v8.445h-14.417v-8.445h14.417zm-24.417 0v8.445H176.97v-8.445h14.417zm-24.417 0v8.445h-14.417v-8.445h14.417zm-24.417 0v8.445h-14.417v-8.445h14.417zm-30.818 18.445v8.444H97.319v-8.444h14.416zm10 0h14.417v8.444h-14.417v-8.444zm24.417 0h14.417v8.444h-14.417v-8.444zm24.417 0h14.417v8.444h-14.417v-8.444zm24.417 0h14.417v8.444h-14.417v-8.444zm24.416 0h14.417v8.444h-14.417v-8.444zm30.818-18.445h8.016v8.445h-8.016v-8.445zm-30.818-10v-8.444h14.417v8.444h-14.417zm-10 0h-14.417v-8.444h14.417v8.444zm-24.416 0h-14.417v-8.444h14.417v8.444zm-24.417 0h-14.417v-8.444h14.417v8.444zm-24.417 0h-14.417v-8.444h14.417v8.444zm-24.417 0H97.319v-8.444h14.417v8.444zm-18.016 10v8.445H72.901v-8.445h20.818zm150.099 26.889v-8.444h14.417v8.444h-14.417zm14.417-36.889h-14.417v-8.444h14.417v8.444zm-170.917-8.444v8.444H72.901v-8.444h14.417z"/>
</svg>
