<svg xmlns="http://www.w3.org/2000/svg" viewBox="0 0 459.123 459.123">
    <path d="M407.062 39.123h-5.5v-28.5a5.5 5.5 0 00-5.5-5.5h-22a5.5 5.5 0 00-5.5 5.5v28.5h-5.5c-7.187 0-13.887 2.852-18.869 8.031-4.981 5.179-7.571 11.986-7.292 19.166l5.312 136.579a70.216 70.216 0 01-9.41 37.968 5.499 5.499 0 004.755 8.256 5.5 5.5 0 004.765-2.745 81.212 81.212 0 0010.883-43.907l-5.312-136.578a15.052 15.052 0 014.228-11.113 15.107 15.107 0 015.441-3.62v311.162c0 32.466 7.816 64.904 22.604 93.806a5.5 5.5 0 009.792 0c14.787-28.902 22.604-61.34 22.604-93.806V44.623a5.502 5.502 0 00-5.501-5.5zm-38.5 35h33v271h-33v-271zm0-11v-13h33v13h-33zm11-47h11v23h-11v-23zm5.5 424.68c-10.821-24.652-16.5-51.555-16.5-78.481v-6.199h33v6.199c0 26.926-5.679 53.829-16.5 78.481zM86.185 0H61.938C53.46 0 46.562 6.898 46.562 15.377v384.246c0 .711.138 1.416.406 2.075l22 54a5.5 5.5 0 0010.188 0l22-54a5.49 5.49 0 00.406-2.075V15.377C101.562 6.898 94.663 0 86.185 0zM61.938 11h24.246a4.383 4.383 0 014.377 4.377V30h-33V15.377A4.383 4.383 0 0161.938 11zm7.837 417.524l-9.534-23.401h27.641l-9.534 23.401h-8.573zm-12.213-34.401V60h11v334.123h-11zm22 0V60h11v334.123h-11zM57.562 49v-8h33v8h-33zM207.627 5.123H139.33a5.5 5.5 0 00-5.5 5.5v443a5.5 5.5 0 005.5 5.5h68.297a5.5 5.5 0 005.5-5.5v-443a5.5 5.5 0 00-5.5-5.5zm-5.5 443H144.83v-12.291h10.5a5.5 5.5 0 000-11h-10.5v-17.316h10.5a5.5 5.5 0 000-11h-10.5v-17.315h23.843a5.5 5.5 0 000-11H144.83v-17.316h10.5a5.5 5.5 0 000-11h-10.5V322.57h10.5a5.5 5.5 0 000-11h-10.5v-17.316h10.5a5.5 5.5 0 000-11h-10.5v-17.315h23.843a5.5 5.5 0 000-11H144.83v-17.316h10.5a5.5 5.5 0 000-11h-10.5v-17.315h10.5a5.5 5.5 0 000-11h-10.5v-17.316h10.5a5.5 5.5 0 000-11h-10.5v-17.315h23.843a5.5 5.5 0 000-11H144.83v-17.316h10.5a5.5 5.5 0 000-11h-10.5V96.045h10.5a5.5 5.5 0 000-11h-10.5V67.73h10.5a5.5 5.5 0 000-11h-10.5V39.414h23.843a5.5 5.5 0 000-11H144.83V16.123h57.297v432zm107.271-238h12.496a5.5 5.5 0 000-11h-12.496v-61.5a5.5 5.5 0 00-1.324-3.579l-6.471-7.55c4.407-6.028 6.791-13.278 6.791-20.871 0-17.703-13.026-32.419-29.996-35.071v-8.429h3.5a5.5 5.5 0 005.5-5.5v-47a5.5 5.5 0 00-5.5-5.5h-18a5.5 5.5 0 00-5.5 5.5v47a5.5 5.5 0 005.5 5.5h3.5v8.427c-16.974 2.65-30.004 17.367-30.004 35.073 0 7.595 2.386 14.847 6.795 20.876l-6.467 7.545a5.501 5.501 0 00-1.324 3.579v61.5h-12.504a5.5 5.5 0 000 11h12.504v167h-3.2v-6.167a5.5 5.5 0 00-11 0v7.081c-1.486.985-2.467 2.67-2.467 4.586s.981 3.601 2.467 4.586v7.081a5.5 5.5 0 0011 0v-6.167h3.2v12.5c0 .97.257 1.923.744 2.762l17.256 29.718v20.52a5.5 5.5 0 0011 0v-243.5h2v6.5a5.5 5.5 0 0011 0v-6.5h2v243.5a5.5 5.5 0 0011 0v-20.52l17.256-29.718a5.503 5.503 0 00.744-2.762v-12.5h3.199v6.167a5.5 5.5 0 0011 0v-7.081c1.486-.985 2.467-2.67 2.467-4.586s-.981-3.601-2.467-4.586v-7.081a5.5 5.5 0 00-11 0v6.167h-3.199v-167zm-40-195h7v36h-7v-36zm-21.003 90.5c0-13.509 10.99-24.5 24.5-24.5s24.5 10.991 24.5 24.5c0 4.336-1.13 8.509-3.244 12.177l-4.077-4.756a5.499 5.499 0 00-9.676 3.579v12.323a24.316 24.316 0 01-7.504 1.177c-2.587 0-5.095-.4-7.496-1.174v-12.326a5.5 5.5 0 00-9.676-3.579l-4.081 4.762a24.327 24.327 0 01-3.246-12.183zm-.997 34.035l7-8.167v279.707l-7-12.056V139.658zm31 59.465v-6.5a5.5 5.5 0 00-11 0v6.5h-2v-58.798a35.632 35.632 0 0015-.001v58.799h-2zm20 200.019l-7 12.056V131.491l7 8.167v259.484z"/>
</svg>
