<svg xmlns="http://www.w3.org/2000/svg" width="535.417" height="535.417">
    <path d="M500.365 167.693c-9.12-44.77-3.293-138.514-158.295-163.234C187.062-20.285 47.398 58.361 82.529 230.248c0 31.33-62.035 79.965-47.088 96.406 14.946 16.441 40.31 17.083 40.31 17.083s-16.5 31.33-9.073 39.982c7.409 8.653 28.025 4.951 28.025 4.951s-19.156 13.803-19.156 24.511c0 10.72 32.345 24.954 32.345 24.954s-5.932 59.285 42.64 55.174c48.57-4.109 56.75-17.83 56.75-17.83l14.398 59.938h188l-6.621-130.27c0 .012 115.452-125.318 97.306-237.454zm-142.601 92.869c3.854-7.077 4.975-15.636 2.394-23.927-5.079-16.254-22.35-25.328-38.616-20.271-16.254 5.056-25.316 22.35-20.271 38.604 2.604 8.291 8.361 14.701 15.565 18.333l4.099 13.172-68.813 21.428-26.507-85.092-10.76 3.352c-4.233 8.337-11.66 15.052-21.299 18.053-18.87 5.885-38.919-4.647-44.793-23.518-5.879-18.87 4.665-38.932 23.523-44.805 9.634-2.989 19.571-1.705 27.763 2.768l10.772-3.352-23.734-76.228 68.825-21.427 3.24 10.404c-3.859 7.064-4.975 15.612-2.388 23.915 5.056 16.243 22.332 25.328 38.599 20.26 16.254-5.068 25.339-22.35 20.271-38.604-2.593-8.302-8.361-14.713-15.554-18.345l-3.247-10.404 70.18-21.848 24.919 80.035-7.274 2.265c-7.064-3.865-15.636-4.986-23.927-2.394-16.255 5.056-25.339 22.338-20.271 38.593s22.351 25.339 38.616 20.271c8.279-2.592 14.701-8.361 18.321-15.554l7.286-2.254 27.359 87.87-70.167 21.848-4.111-13.148z"/>
</svg>
